<svg xmlns="http://www.w3.org/2000/svg" viewBox="0 0 336.16 108.15"><defs><style>.cls-1{fill:#fff;}</style></defs><title>sog-logo</title><g id="Layer_2" data-name="Layer 2"><g id="svg427"><g id="layer1"><g id="g472"><path id="path332" class="cls-1" d="M328.63,6.46V4.26h1.47c.75,0,1.54.16,1.54,1,0,1.09-.81,1.16-1.72,1.16Zm4.14-1.1c0-1.4-.83-2-2.51-2h-2.7v7.1h1.07V7.36h1.24l1.87,3.08H333l-2-3.12a1.85,1.85,0,0,0,1.84-2"/><path id="path336" class="cls-1" d="M329.94,12a5,5,0,0,1-5-5.14,5,5,0,1,1,10,0,5,5,0,0,1-5,5.14m0-11.28a6.16,6.16,0,1,0,6.22,6.14A6.15,6.15,0,0,0,329.94.74"/><path id="path340" class="cls-1" d="M134.73,34c0-3.59,2.05-5.64,5.85-5.64h39.18c3.54.08,5.74,2.09,5.64,5.64V73.36c0,5.93-5.46,5.64-6,5.64H140.89c.46,0-6.16.71-6.16-5.52Zm108.81-5.64h48.57L320.45,0H243.77c-19.3.61-29.69,16.58-32,23.43C209.6,16.79,198.41.11,179.76,0H140.38c-18.44,0-34,18.14-34,34V54.24a34.82,34.82,0,0,0-27.46-14.4H39.56c-2.3,0-5.35-.55-5.35-5.34,0-3.55,1.8-5.35,5.35-5.35H84.73L113.56.28l-74-.06h0C26.62-.26,5.4,12.6,5.28,34.73,5.18,55,23,68.54,39.56,68.54H78.94a5,5,0,0,1,5.35,5.34c0,1.61-.5,5.35-5.12,5.35H28.93L0,108.15H78.94c12.94,0,25.35-9,31-20.73,1.74,3.38,11.87,19.91,30.41,19.91h39.38c18.46.13,30.18-17.2,32-23.43,2.86,8.37,14.11,23.22,32,23.43h73.36V39.62H276.67L248.54,66.31H288.8V79h-45c-6.09,0-5.81-5.18-5.87-5.18V34c.1-.1-.34-5.64,5.64-5.64"/></g></g></g></g></svg>